<mxfile host="app.diagrams.net" modified="2021-03-20T18:26:48.244Z" agent="5.0 (Windows NT 10.0; Win64; x64) AppleWebKit/537.36 (KHTML, like Gecko) Chrome/89.0.4389.82 Safari/537.36" etag="ZT-YM3sjlGc74OuqoQ6n" version="14.4.8" type="github">
  <diagram id="AC8zhZiP7jztCWztf3qn" name="第 1 页">
    <mxGraphModel dx="1422" dy="762" grid="1" gridSize="10" guides="1" tooltips="1" connect="1" arrows="1" fold="1" page="1" pageScale="1" pageWidth="827" pageHeight="1169" math="0" shadow="0">
      <root>
        <mxCell id="0" />
        <mxCell id="1" parent="0" />
        <mxCell id="OM33lBpU0fcFgTIFghnr-90" value="" style="group" vertex="1" connectable="0" parent="1">
          <mxGeometry x="120" y="460" width="120" height="164" as="geometry" />
        </mxCell>
        <mxCell id="OM33lBpU0fcFgTIFghnr-91" value="my_data_list" style="swimlane;fontStyle=0;childLayout=stackLayout;horizontal=1;startSize=26;fillColor=#d5e8d4;horizontalStack=0;resizeParent=1;resizeParentMax=0;resizeLast=0;collapsible=1;marginBottom=0;fontSize=14;strokeColor=#82b366;" vertex="1" parent="OM33lBpU0fcFgTIFghnr-90">
          <mxGeometry y="60" width="120" height="104" as="geometry" />
        </mxCell>
        <mxCell id="OM33lBpU0fcFgTIFghnr-92" value="val: 1" style="text;strokeColor=#314354;fillColor=#647687;align=left;verticalAlign=top;spacingLeft=4;spacingRight=4;overflow=hidden;rotatable=0;points=[[0,0.5],[1,0.5]];portConstraint=eastwest;fontColor=#ffffff;fontSize=14;" vertex="1" parent="OM33lBpU0fcFgTIFghnr-91">
          <mxGeometry y="26" width="120" height="26" as="geometry" />
        </mxCell>
        <mxCell id="OM33lBpU0fcFgTIFghnr-93" value="list: next" style="text;strokeColor=#314354;fillColor=#647687;align=left;verticalAlign=top;spacingLeft=4;spacingRight=4;overflow=hidden;rotatable=0;points=[[0,0.5],[1,0.5]];portConstraint=eastwest;fontColor=#ffffff;fontSize=14;" vertex="1" parent="OM33lBpU0fcFgTIFghnr-91">
          <mxGeometry y="52" width="120" height="26" as="geometry" />
        </mxCell>
        <mxCell id="OM33lBpU0fcFgTIFghnr-94" value="list: prev" style="text;strokeColor=#314354;fillColor=#647687;align=left;verticalAlign=top;spacingLeft=4;spacingRight=4;overflow=hidden;rotatable=0;points=[[0,0.5],[1,0.5]];portConstraint=eastwest;fontColor=#ffffff;fontSize=14;" vertex="1" parent="OM33lBpU0fcFgTIFghnr-91">
          <mxGeometry y="78" width="120" height="26" as="geometry" />
        </mxCell>
        <mxCell id="OM33lBpU0fcFgTIFghnr-95" value="节点1" style="text;html=1;align=center;verticalAlign=middle;resizable=0;points=[];autosize=1;fontSize=14;" vertex="1" parent="OM33lBpU0fcFgTIFghnr-90">
          <mxGeometry x="35" width="50" height="20" as="geometry" />
        </mxCell>
        <mxCell id="OM33lBpU0fcFgTIFghnr-96" value="" style="group" vertex="1" connectable="0" parent="1">
          <mxGeometry x="570" y="490" width="140" height="124" as="geometry" />
        </mxCell>
        <mxCell id="OM33lBpU0fcFgTIFghnr-97" value="list_head" style="swimlane;fontStyle=0;childLayout=stackLayout;horizontal=1;startSize=26;fillColor=#e1d5e7;horizontalStack=0;resizeParent=1;resizeParentMax=0;resizeLast=0;collapsible=1;marginBottom=0;fontSize=14;strokeColor=#9673a6;" vertex="1" parent="OM33lBpU0fcFgTIFghnr-96">
          <mxGeometry x="-8" y="31" width="140" height="78" as="geometry" />
        </mxCell>
        <mxCell id="OM33lBpU0fcFgTIFghnr-98" value="next" style="text;strokeColor=#314354;fillColor=#647687;align=left;verticalAlign=top;spacingLeft=4;spacingRight=4;overflow=hidden;rotatable=0;points=[[0,0.5],[1,0.5]];portConstraint=eastwest;fontColor=#ffffff;fontSize=14;" vertex="1" parent="OM33lBpU0fcFgTIFghnr-97">
          <mxGeometry y="26" width="140" height="26" as="geometry" />
        </mxCell>
        <mxCell id="OM33lBpU0fcFgTIFghnr-99" value="prev" style="text;strokeColor=#314354;fillColor=#647687;align=left;verticalAlign=top;spacingLeft=4;spacingRight=4;overflow=hidden;rotatable=0;points=[[0,0.5],[1,0.5]];portConstraint=eastwest;fontColor=#ffffff;fontSize=14;" vertex="1" parent="OM33lBpU0fcFgTIFghnr-97">
          <mxGeometry y="52" width="140" height="26" as="geometry" />
        </mxCell>
        <mxCell id="OM33lBpU0fcFgTIFghnr-100" value="listHead" style="text;html=1;align=center;verticalAlign=middle;resizable=0;points=[];autosize=1;fontSize=14;" vertex="1" parent="OM33lBpU0fcFgTIFghnr-96">
          <mxGeometry x="35" width="70" height="20" as="geometry" />
        </mxCell>
        <mxCell id="OM33lBpU0fcFgTIFghnr-114" value="" style="group" vertex="1" connectable="0" parent="1">
          <mxGeometry x="360" y="340" width="120" height="164" as="geometry" />
        </mxCell>
        <mxCell id="OM33lBpU0fcFgTIFghnr-115" value="my_data_list" style="swimlane;fontStyle=0;childLayout=stackLayout;horizontal=1;startSize=26;fillColor=#d5e8d4;horizontalStack=0;resizeParent=1;resizeParentMax=0;resizeLast=0;collapsible=1;marginBottom=0;fontSize=14;strokeColor=#82b366;" vertex="1" parent="OM33lBpU0fcFgTIFghnr-114">
          <mxGeometry y="60" width="120" height="104" as="geometry" />
        </mxCell>
        <mxCell id="OM33lBpU0fcFgTIFghnr-116" value="val: 2" style="text;strokeColor=#314354;fillColor=#647687;align=left;verticalAlign=top;spacingLeft=4;spacingRight=4;overflow=hidden;rotatable=0;points=[[0,0.5],[1,0.5]];portConstraint=eastwest;fontColor=#ffffff;fontSize=14;" vertex="1" parent="OM33lBpU0fcFgTIFghnr-115">
          <mxGeometry y="26" width="120" height="26" as="geometry" />
        </mxCell>
        <mxCell id="OM33lBpU0fcFgTIFghnr-117" value="list: next" style="text;strokeColor=#314354;fillColor=#647687;align=left;verticalAlign=top;spacingLeft=4;spacingRight=4;overflow=hidden;rotatable=0;points=[[0,0.5],[1,0.5]];portConstraint=eastwest;fontColor=#ffffff;fontSize=14;" vertex="1" parent="OM33lBpU0fcFgTIFghnr-115">
          <mxGeometry y="52" width="120" height="26" as="geometry" />
        </mxCell>
        <mxCell id="OM33lBpU0fcFgTIFghnr-118" value="list: prev" style="text;strokeColor=#314354;fillColor=#647687;align=left;verticalAlign=top;spacingLeft=4;spacingRight=4;overflow=hidden;rotatable=0;points=[[0,0.5],[1,0.5]];portConstraint=eastwest;fontColor=#ffffff;fontSize=14;" vertex="1" parent="OM33lBpU0fcFgTIFghnr-115">
          <mxGeometry y="78" width="120" height="26" as="geometry" />
        </mxCell>
        <mxCell id="OM33lBpU0fcFgTIFghnr-119" value="节点2" style="text;html=1;align=center;verticalAlign=middle;resizable=0;points=[];autosize=1;fontSize=14;" vertex="1" parent="OM33lBpU0fcFgTIFghnr-114">
          <mxGeometry x="35" width="50" height="20" as="geometry" />
        </mxCell>
        <mxCell id="OM33lBpU0fcFgTIFghnr-122" value="(1)" style="text;html=1;align=center;verticalAlign=middle;resizable=0;points=[];autosize=1;" vertex="1" parent="1">
          <mxGeometry x="500" y="560" width="30" height="20" as="geometry" />
        </mxCell>
        <mxCell id="OM33lBpU0fcFgTIFghnr-123" style="edgeStyle=orthogonalEdgeStyle;curved=1;rounded=0;orthogonalLoop=1;jettySize=auto;html=1;exitX=0;exitY=0.5;exitDx=0;exitDy=0;entryX=1;entryY=0.25;entryDx=0;entryDy=0;fillColor=#6a00ff;strokeColor=#3700CC;" edge="1" parent="1" source="OM33lBpU0fcFgTIFghnr-99" target="OM33lBpU0fcFgTIFghnr-115">
          <mxGeometry relative="1" as="geometry" />
        </mxCell>
        <mxCell id="OM33lBpU0fcFgTIFghnr-125" value="Prev" style="edgeLabel;html=1;align=center;verticalAlign=middle;resizable=0;points=[];" vertex="1" connectable="0" parent="OM33lBpU0fcFgTIFghnr-123">
          <mxGeometry x="-0.1157" y="1" relative="1" as="geometry">
            <mxPoint as="offset" />
          </mxGeometry>
        </mxCell>
        <mxCell id="OM33lBpU0fcFgTIFghnr-124" style="edgeStyle=orthogonalEdgeStyle;curved=1;rounded=0;orthogonalLoop=1;jettySize=auto;html=1;exitX=1;exitY=0.5;exitDx=0;exitDy=0;entryX=0.25;entryY=0;entryDx=0;entryDy=0;" edge="1" parent="1" source="OM33lBpU0fcFgTIFghnr-117" target="OM33lBpU0fcFgTIFghnr-97">
          <mxGeometry relative="1" as="geometry" />
        </mxCell>
        <mxCell id="OM33lBpU0fcFgTIFghnr-126" value="Next" style="edgeLabel;html=1;align=center;verticalAlign=middle;resizable=0;points=[];" vertex="1" connectable="0" parent="OM33lBpU0fcFgTIFghnr-124">
          <mxGeometry x="-0.052" y="-12" relative="1" as="geometry">
            <mxPoint as="offset" />
          </mxGeometry>
        </mxCell>
        <mxCell id="OM33lBpU0fcFgTIFghnr-127" value="Prev" style="edgeStyle=orthogonalEdgeStyle;curved=1;rounded=0;orthogonalLoop=1;jettySize=auto;html=1;exitX=0;exitY=0.5;exitDx=0;exitDy=0;entryX=1;entryY=0.5;entryDx=0;entryDy=0;fillColor=#6a00ff;strokeColor=#3700CC;" edge="1" parent="1" source="OM33lBpU0fcFgTIFghnr-118" target="OM33lBpU0fcFgTIFghnr-93">
          <mxGeometry relative="1" as="geometry" />
        </mxCell>
        <mxCell id="OM33lBpU0fcFgTIFghnr-128" value="(2)" style="text;html=1;align=center;verticalAlign=middle;resizable=0;points=[];autosize=1;" vertex="1" parent="1">
          <mxGeometry x="545" y="450" width="30" height="20" as="geometry" />
        </mxCell>
        <mxCell id="OM33lBpU0fcFgTIFghnr-129" style="edgeStyle=orthogonalEdgeStyle;curved=1;rounded=0;orthogonalLoop=1;jettySize=auto;html=1;exitX=0;exitY=0.5;exitDx=0;exitDy=0;entryX=0;entryY=0.5;entryDx=0;entryDy=0;" edge="1" parent="1" source="OM33lBpU0fcFgTIFghnr-93" target="OM33lBpU0fcFgTIFghnr-117">
          <mxGeometry relative="1" as="geometry">
            <Array as="points">
              <mxPoint x="100" y="585" />
              <mxPoint x="100" y="440" />
              <mxPoint x="360" y="440" />
            </Array>
          </mxGeometry>
        </mxCell>
        <mxCell id="OM33lBpU0fcFgTIFghnr-132" value="Next" style="edgeLabel;html=1;align=center;verticalAlign=middle;resizable=0;points=[];" vertex="1" connectable="0" parent="OM33lBpU0fcFgTIFghnr-129">
          <mxGeometry x="0.2622" y="2" relative="1" as="geometry">
            <mxPoint as="offset" />
          </mxGeometry>
        </mxCell>
        <mxCell id="OM33lBpU0fcFgTIFghnr-131" value="(3)" style="text;html=1;align=center;verticalAlign=middle;resizable=0;points=[];autosize=1;" vertex="1" parent="1">
          <mxGeometry x="295" y="550" width="30" height="20" as="geometry" />
        </mxCell>
        <mxCell id="OM33lBpU0fcFgTIFghnr-133" value="(4)" style="text;html=1;align=center;verticalAlign=middle;resizable=0;points=[];autosize=1;" vertex="1" parent="1">
          <mxGeometry x="155" y="410" width="30" height="20" as="geometry" />
        </mxCell>
        <mxCell id="OM33lBpU0fcFgTIFghnr-134" value="" style="group" vertex="1" connectable="0" parent="1">
          <mxGeometry x="160" y="23" width="120" height="164" as="geometry" />
        </mxCell>
        <mxCell id="OM33lBpU0fcFgTIFghnr-135" value="my_data_list" style="swimlane;fontStyle=0;childLayout=stackLayout;horizontal=1;startSize=26;fillColor=#d5e8d4;horizontalStack=0;resizeParent=1;resizeParentMax=0;resizeLast=0;collapsible=1;marginBottom=0;fontSize=14;strokeColor=#82b366;" vertex="1" parent="OM33lBpU0fcFgTIFghnr-134">
          <mxGeometry y="60" width="120" height="104" as="geometry" />
        </mxCell>
        <mxCell id="OM33lBpU0fcFgTIFghnr-136" value="val: 1" style="text;strokeColor=#314354;fillColor=#647687;align=left;verticalAlign=top;spacingLeft=4;spacingRight=4;overflow=hidden;rotatable=0;points=[[0,0.5],[1,0.5]];portConstraint=eastwest;fontColor=#ffffff;fontSize=14;" vertex="1" parent="OM33lBpU0fcFgTIFghnr-135">
          <mxGeometry y="26" width="120" height="26" as="geometry" />
        </mxCell>
        <mxCell id="OM33lBpU0fcFgTIFghnr-137" value="list: next" style="text;strokeColor=#314354;fillColor=#647687;align=left;verticalAlign=top;spacingLeft=4;spacingRight=4;overflow=hidden;rotatable=0;points=[[0,0.5],[1,0.5]];portConstraint=eastwest;fontColor=#ffffff;fontSize=14;" vertex="1" parent="OM33lBpU0fcFgTIFghnr-135">
          <mxGeometry y="52" width="120" height="26" as="geometry" />
        </mxCell>
        <mxCell id="OM33lBpU0fcFgTIFghnr-138" value="list: prev" style="text;strokeColor=#314354;fillColor=#647687;align=left;verticalAlign=top;spacingLeft=4;spacingRight=4;overflow=hidden;rotatable=0;points=[[0,0.5],[1,0.5]];portConstraint=eastwest;fontColor=#ffffff;fontSize=14;" vertex="1" parent="OM33lBpU0fcFgTIFghnr-135">
          <mxGeometry y="78" width="120" height="26" as="geometry" />
        </mxCell>
        <mxCell id="OM33lBpU0fcFgTIFghnr-139" value="节点1" style="text;html=1;align=center;verticalAlign=middle;resizable=0;points=[];autosize=1;fontSize=14;" vertex="1" parent="OM33lBpU0fcFgTIFghnr-134">
          <mxGeometry x="35" width="50" height="20" as="geometry" />
        </mxCell>
        <mxCell id="OM33lBpU0fcFgTIFghnr-140" value="" style="group" vertex="1" connectable="0" parent="1">
          <mxGeometry x="530" y="72" width="140" height="124" as="geometry" />
        </mxCell>
        <mxCell id="OM33lBpU0fcFgTIFghnr-141" value="list_head" style="swimlane;fontStyle=0;childLayout=stackLayout;horizontal=1;startSize=26;fillColor=#e1d5e7;horizontalStack=0;resizeParent=1;resizeParentMax=0;resizeLast=0;collapsible=1;marginBottom=0;fontSize=14;strokeColor=#9673a6;" vertex="1" parent="OM33lBpU0fcFgTIFghnr-140">
          <mxGeometry x="-8" y="31" width="140" height="78" as="geometry" />
        </mxCell>
        <mxCell id="OM33lBpU0fcFgTIFghnr-142" value="next" style="text;strokeColor=#314354;fillColor=#647687;align=left;verticalAlign=top;spacingLeft=4;spacingRight=4;overflow=hidden;rotatable=0;points=[[0,0.5],[1,0.5]];portConstraint=eastwest;fontColor=#ffffff;fontSize=14;" vertex="1" parent="OM33lBpU0fcFgTIFghnr-141">
          <mxGeometry y="26" width="140" height="26" as="geometry" />
        </mxCell>
        <mxCell id="OM33lBpU0fcFgTIFghnr-143" value="prev" style="text;strokeColor=#314354;fillColor=#647687;align=left;verticalAlign=top;spacingLeft=4;spacingRight=4;overflow=hidden;rotatable=0;points=[[0,0.5],[1,0.5]];portConstraint=eastwest;fontColor=#ffffff;fontSize=14;" vertex="1" parent="OM33lBpU0fcFgTIFghnr-141">
          <mxGeometry y="52" width="140" height="26" as="geometry" />
        </mxCell>
        <mxCell id="OM33lBpU0fcFgTIFghnr-144" value="listHead" style="text;html=1;align=center;verticalAlign=middle;resizable=0;points=[];autosize=1;fontSize=14;" vertex="1" parent="OM33lBpU0fcFgTIFghnr-140">
          <mxGeometry x="35" width="70" height="20" as="geometry" />
        </mxCell>
        <mxCell id="OM33lBpU0fcFgTIFghnr-145" style="edgeStyle=orthogonalEdgeStyle;curved=1;rounded=0;orthogonalLoop=1;jettySize=auto;html=1;exitX=0;exitY=0.75;exitDx=0;exitDy=0;entryX=1;entryY=0.5;entryDx=0;entryDy=0;fillColor=#6a00ff;strokeColor=#3700CC;" edge="1" parent="1" source="OM33lBpU0fcFgTIFghnr-141" target="OM33lBpU0fcFgTIFghnr-135">
          <mxGeometry relative="1" as="geometry">
            <Array as="points">
              <mxPoint x="301" y="162" />
              <mxPoint x="301" y="135" />
            </Array>
          </mxGeometry>
        </mxCell>
        <mxCell id="OM33lBpU0fcFgTIFghnr-146" value="Prev" style="edgeLabel;html=1;align=center;verticalAlign=middle;resizable=0;points=[];" vertex="1" connectable="0" parent="OM33lBpU0fcFgTIFghnr-145">
          <mxGeometry x="-0.4872" y="-15" relative="1" as="geometry">
            <mxPoint as="offset" />
          </mxGeometry>
        </mxCell>
        <mxCell id="OM33lBpU0fcFgTIFghnr-147" value="(1)" style="text;html=1;align=center;verticalAlign=middle;resizable=0;points=[];autosize=1;" vertex="1" parent="1">
          <mxGeometry x="415" y="162" width="30" height="20" as="geometry" />
        </mxCell>
        <mxCell id="OM33lBpU0fcFgTIFghnr-148" value="(2)" style="text;html=1;align=center;verticalAlign=middle;resizable=0;points=[];autosize=1;" vertex="1" parent="1">
          <mxGeometry x="361" y="95" width="30" height="20" as="geometry" />
        </mxCell>
        <mxCell id="OM33lBpU0fcFgTIFghnr-149" style="edgeStyle=orthogonalEdgeStyle;curved=1;rounded=0;orthogonalLoop=1;jettySize=auto;html=1;exitX=1;exitY=0.5;exitDx=0;exitDy=0;entryX=0;entryY=0.115;entryDx=0;entryDy=0;entryPerimeter=0;" edge="1" parent="1" source="OM33lBpU0fcFgTIFghnr-137" target="OM33lBpU0fcFgTIFghnr-141">
          <mxGeometry relative="1" as="geometry">
            <Array as="points">
              <mxPoint x="280" y="92" />
              <mxPoint x="522" y="92" />
            </Array>
          </mxGeometry>
        </mxCell>
        <mxCell id="OM33lBpU0fcFgTIFghnr-150" value="Next" style="edgeLabel;html=1;align=center;verticalAlign=middle;resizable=0;points=[];" vertex="1" connectable="0" parent="OM33lBpU0fcFgTIFghnr-149">
          <mxGeometry x="-0.3309" y="-9" relative="1" as="geometry">
            <mxPoint as="offset" />
          </mxGeometry>
        </mxCell>
        <mxCell id="OM33lBpU0fcFgTIFghnr-151" style="edgeStyle=orthogonalEdgeStyle;curved=1;rounded=0;orthogonalLoop=1;jettySize=auto;html=1;exitX=1;exitY=0.5;exitDx=0;exitDy=0;entryX=0;entryY=0.5;entryDx=0;entryDy=0;" edge="1" parent="1" source="OM33lBpU0fcFgTIFghnr-141" target="OM33lBpU0fcFgTIFghnr-135">
          <mxGeometry relative="1" as="geometry">
            <Array as="points">
              <mxPoint x="682" y="142" />
              <mxPoint x="682" y="47" />
              <mxPoint x="125" y="47" />
              <mxPoint x="125" y="135" />
            </Array>
          </mxGeometry>
        </mxCell>
        <mxCell id="OM33lBpU0fcFgTIFghnr-152" value="Next" style="edgeLabel;html=1;align=center;verticalAlign=middle;resizable=0;points=[];" vertex="1" connectable="0" parent="OM33lBpU0fcFgTIFghnr-151">
          <mxGeometry x="0.0767" y="-2" relative="1" as="geometry">
            <mxPoint as="offset" />
          </mxGeometry>
        </mxCell>
        <mxCell id="OM33lBpU0fcFgTIFghnr-153" style="edgeStyle=orthogonalEdgeStyle;curved=1;rounded=0;orthogonalLoop=1;jettySize=auto;html=1;exitX=1;exitY=0.5;exitDx=0;exitDy=0;entryX=1;entryY=0.25;entryDx=0;entryDy=0;fillColor=#6a00ff;strokeColor=#3700CC;" edge="1" parent="1" source="OM33lBpU0fcFgTIFghnr-138" target="OM33lBpU0fcFgTIFghnr-141">
          <mxGeometry relative="1" as="geometry">
            <Array as="points">
              <mxPoint x="280" y="232" />
              <mxPoint x="682" y="232" />
              <mxPoint x="682" y="123" />
            </Array>
          </mxGeometry>
        </mxCell>
        <mxCell id="OM33lBpU0fcFgTIFghnr-154" value="Prev" style="edgeLabel;html=1;align=center;verticalAlign=middle;resizable=0;points=[];" vertex="1" connectable="0" parent="OM33lBpU0fcFgTIFghnr-153">
          <mxGeometry x="-0.2706" relative="1" as="geometry">
            <mxPoint as="offset" />
          </mxGeometry>
        </mxCell>
        <mxCell id="OM33lBpU0fcFgTIFghnr-155" value="(3)" style="text;html=1;align=center;verticalAlign=middle;resizable=0;points=[];autosize=1;" vertex="1" parent="1">
          <mxGeometry x="425" y="242" width="30" height="20" as="geometry" />
        </mxCell>
        <mxCell id="OM33lBpU0fcFgTIFghnr-156" value="(4)" style="text;html=1;align=center;verticalAlign=middle;resizable=0;points=[];autosize=1;" vertex="1" parent="1">
          <mxGeometry x="465" y="20" width="30" height="20" as="geometry" />
        </mxCell>
        <mxCell id="OM33lBpU0fcFgTIFghnr-157" style="edgeStyle=orthogonalEdgeStyle;curved=1;rounded=0;orthogonalLoop=1;jettySize=auto;html=1;exitX=1;exitY=0.5;exitDx=0;exitDy=0;entryX=0;entryY=0.5;entryDx=0;entryDy=0;fillColor=#fa6800;strokeColor=#C73500;" edge="1" parent="1" source="OM33lBpU0fcFgTIFghnr-94" target="OM33lBpU0fcFgTIFghnr-97">
          <mxGeometry relative="1" as="geometry" />
        </mxCell>
        <mxCell id="OM33lBpU0fcFgTIFghnr-158" value="Prev" style="edgeLabel;html=1;align=center;verticalAlign=middle;resizable=0;points=[];" vertex="1" connectable="0" parent="OM33lBpU0fcFgTIFghnr-157">
          <mxGeometry x="-0.2547" y="8" relative="1" as="geometry">
            <mxPoint as="offset" />
          </mxGeometry>
        </mxCell>
        <mxCell id="OM33lBpU0fcFgTIFghnr-159" style="edgeStyle=orthogonalEdgeStyle;curved=1;rounded=0;orthogonalLoop=1;jettySize=auto;html=1;exitX=1;exitY=0.5;exitDx=0;exitDy=0;entryX=0;entryY=0.5;entryDx=0;entryDy=0;fillColor=#fa6800;strokeColor=#C73500;" edge="1" parent="1" source="OM33lBpU0fcFgTIFghnr-97" target="OM33lBpU0fcFgTIFghnr-93">
          <mxGeometry relative="1" as="geometry">
            <Array as="points">
              <mxPoint x="722" y="560" />
              <mxPoint x="722" y="680" />
              <mxPoint x="100" y="680" />
              <mxPoint x="100" y="585" />
            </Array>
          </mxGeometry>
        </mxCell>
        <mxCell id="OM33lBpU0fcFgTIFghnr-160" value="Next" style="edgeLabel;html=1;align=center;verticalAlign=middle;resizable=0;points=[];" vertex="1" connectable="0" parent="OM33lBpU0fcFgTIFghnr-159">
          <mxGeometry x="-0.0468" y="-4" relative="1" as="geometry">
            <mxPoint as="offset" />
          </mxGeometry>
        </mxCell>
        <mxCell id="OM33lBpU0fcFgTIFghnr-161" value="未动" style="text;html=1;align=center;verticalAlign=middle;resizable=0;points=[];autosize=1;" vertex="1" parent="1">
          <mxGeometry x="350" y="619" width="40" height="20" as="geometry" />
        </mxCell>
        <mxCell id="OM33lBpU0fcFgTIFghnr-162" value="未动" style="text;html=1;align=center;verticalAlign=middle;resizable=0;points=[];autosize=1;" vertex="1" parent="1">
          <mxGeometry x="400" y="680" width="40" height="20" as="geometry" />
        </mxCell>
        <mxCell id="OM33lBpU0fcFgTIFghnr-163" value="" style="verticalLabelPosition=bottom;verticalAlign=top;html=1;shape=mxgraph.basic.x;strokeColor=#A50040;fontColor=#ffffff;fillColor=#FF3333;" vertex="1" parent="1">
          <mxGeometry x="445" y="60" width="20" height="20" as="geometry" />
        </mxCell>
        <mxCell id="OM33lBpU0fcFgTIFghnr-164" value="" style="verticalLabelPosition=bottom;verticalAlign=top;html=1;shape=mxgraph.basic.x;strokeColor=#A50040;fontColor=#ffffff;fillColor=#FF3333;" vertex="1" parent="1">
          <mxGeometry x="480" y="124" width="20" height="20" as="geometry" />
        </mxCell>
        <mxCell id="OM33lBpU0fcFgTIFghnr-167" value="" style="html=1;shadow=0;dashed=0;align=center;verticalAlign=middle;shape=mxgraph.arrows2.arrow;dy=0.6;dx=40;direction=south;notch=0;fillColor=#6d8764;strokeColor=#3A5431;fontColor=#ffffff;" vertex="1" parent="1">
          <mxGeometry x="404" y="250" width="41" height="70" as="geometry" />
        </mxCell>
      </root>
    </mxGraphModel>
  </diagram>
</mxfile>
